<?xml version="1.0" standalone="no"?>
<!DOCTYPE svg PUBLIC "-//W3C//DTD SVG 20010904//EN"
 "http://www.w3.org/TR/2001/REC-SVG-20010904/DTD/svg10.dtd">

<svg version="1.0" xmlns="http://www.w3.org/2000/svg"
 width="500.000000pt" height="500.000000pt" viewBox="0 0 500.000000 500.000000"
 preserveAspectRatio="xMidYMid meet">
  <a href="https://dorado2041.github.io/DoradoUrlRedirector/introduction-features-performance-improvements-breaking-changes-in-angular-10.html" target="_blank">

<g transform="translate(0.000000,500.000000) scale(0.100000,-0.100000)"
fill="#ff0000" stroke="none">
<path d="M1425 4332 c-577 -206 -1052 -376 -1053 -377 -5 -4 306 -2711 315
-2753 8 -32 39 -51 893 -524 487 -270 890 -490 895 -490 20 0 1780 981 1783
994 5 24 321 2772 319 2774 -2 2 -1948 697 -2067 739 -34 11 -76 -3 -1085
-363z m1705 -1602 c354 -795 645 -1453 648 -1462 4 -17 -12 -18 -236 -18 -181
0 -243 3 -249 12 -4 7 -65 155 -134 328 l-127 315 -562 0 -562 0 -127 -315
c-69 -173 -130 -321 -134 -328 -6 -9 -68 -12 -249 -12 -224 0 -240 1 -236 18
5 17 1281 2881 1300 2916 8 16 12 17 18 5 4 -8 297 -664 650 -1459z"/>
<path d="M2462 3220 c-6 -14 -90 -216 -187 -450 -98 -234 -179 -431 -182 -437
-4 -10 75 -13 376 -13 210 0 381 4 381 8 0 4 -81 203 -181 442 -99 239 -184
444 -189 455 -8 19 -8 19 -18 -5z"/>
</g>
</a>
</svg>
